solid tests/Data/slice.stl
facet normal 1 1 1
outer loop
	vertex 0 0 0.5
	vertex 0.176777 0 0.323223
	vertex 0 0.125 0.375
endloop
endfacet
facet normal 1 1 1
outer loop
	vertex 0.5 0 0
	vertex 0 0.25 0.25
	vertex 0.176777 0 0.323223
endloop
endfacet
facet normal 1 1 1
outer loop
	vertex 0.25 0.25 0
	vertex 0 0.25 0.25
	vertex 0.5 0 0
endloop
endfacet
facet normal 1 1 1
outer loop
	vertex 0.176777 0 0.323223
	vertex 0 0.25 0.25
	vertex 0 0.125 0.375
endloop
endfacet
facet normal 1 1 1
outer loop
	vertex 0 0.411612 0.0883883
	vertex 0.25 0.25 0
	vertex 0.125 0.375 0
endloop
endfacet
facet normal 1 1 1
outer loop
	vertex 0 0.25 0.25
	vertex 0.25 0.25 0
	vertex 0 0.411612 0.0883883
endloop
endfacet
facet normal 1 1 1
outer loop
	vertex 0 0.5 0
	vertex 0 0.411612 0.0883883
	vertex 0.125 0.375 0
endloop
endfacet
endsolid
