solid /home/lars/SVMTK/tests/Data/slice.stl
facet normal 1 1 1
outer loop
	vertex 0 0.25 0.25
	vertex 0.5 0 0
	vertex 0.25 0.25 0
endloop
endfacet
facet normal 1 1 1
outer loop
	vertex 0 0.0883883 0.411612
	vertex 0 0 0.5
	vertex 0.125 0 0.375
endloop
endfacet
facet normal 1 1 1
outer loop
	vertex 0 0.411612 0.0883883
	vertex 0.25 0.25 0
	vertex 0.125 0.375 0
endloop
endfacet
facet normal 1 1 1
outer loop
	vertex 0.5 0 0
	vertex 0 0.25 0.25
	vertex 0.25 0 0.25
endloop
endfacet
facet normal 1 1 1
outer loop
	vertex 0 0.25 0.25
	vertex 0.25 0.25 0
	vertex 0 0.411612 0.0883883
endloop
endfacet
facet normal 1 1 1
outer loop
	vertex 0 0.5 0
	vertex 0 0.411612 0.0883883
	vertex 0.125 0.375 0
endloop
endfacet
facet normal 1 1 1
outer loop
	vertex 0.25 0 0.25
	vertex 0 0.0883883 0.411612
	vertex 0.125 0 0.375
endloop
endfacet
facet normal 1 1 1
outer loop
	vertex 0.25 0 0.25
	vertex 0 0.25 0.25
	vertex 0 0.0883883 0.411612
endloop
endfacet
endsolid
